<svg width="60" height="60" viewBox="0 0 60 60" fill="none" xmlns="http://www.w3.org/2000/svg">
<path d="M57.5187 10.1925C56.8155 9.3486 55.9351 8.66988 54.94 8.20454C53.945 7.7392 52.8597 7.49866 51.7612 7.5H11.3412L11.2362 6.6225C11.0213 4.79854 10.1446 3.11683 8.7724 1.89619C7.40016 0.675558 5.62774 0.000854484 3.79118 0L3.23618 0C2.57313 0 1.93725 0.263392 1.46841 0.732233C0.999568 1.20107 0.736176 1.83696 0.736176 2.5C0.736176 3.16304 0.999568 3.79893 1.46841 4.26777C1.93725 4.73661 2.57313 5 3.23618 5H3.79118C4.40351 5.00008 4.99452 5.22489 5.45211 5.63179C5.90969 6.03869 6.20203 6.59937 6.27368 7.2075L9.71368 36.4575C10.0708 39.4995 11.5324 42.3045 13.8209 44.34C16.1095 46.3756 19.0658 47.5001 22.1287 47.5H48.2362C48.8992 47.5 49.5351 47.2366 50.0039 46.7678C50.4728 46.2989 50.7362 45.663 50.7362 45C50.7362 44.337 50.4728 43.7011 50.0039 43.2322C49.5351 42.7634 48.8992 42.5 48.2362 42.5H22.1287C20.5813 42.4957 19.0732 42.0128 17.811 41.1177C16.5489 40.2225 15.5945 38.9589 15.0787 37.5H44.8787C47.8094 37.5002 50.647 36.4706 52.8957 34.5911C55.1444 32.7116 56.6613 30.1017 57.1812 27.2175L59.1437 16.3325C59.3396 15.2525 59.2955 14.1427 59.0147 13.0816C58.7339 12.0205 58.2232 11.0342 57.5187 10.1925ZM54.2362 15.445L52.2712 26.33C51.959 28.0625 51.0473 29.63 49.6958 30.758C48.3443 31.886 46.6391 32.5027 44.8787 32.5H14.2837L11.9312 12.5H51.7612C52.1284 12.4978 52.4916 12.5766 52.825 12.7306C53.1584 12.8847 53.4537 13.1104 53.69 13.3915C53.9263 13.6727 54.0977 14.0024 54.1921 14.3573C54.2865 14.7123 54.3016 15.0836 54.2362 15.445Z" fill="black"/>
<path d="M18.2362 60C20.9976 60 23.2362 57.7614 23.2362 55C23.2362 52.2386 20.9976 50 18.2362 50C15.4748 50 13.2362 52.2386 13.2362 55C13.2362 57.7614 15.4748 60 18.2362 60Z" fill="black"/>
<path d="M43.2362 60C45.9976 60 48.2362 57.7614 48.2362 55C48.2362 52.2386 45.9976 50 43.2362 50C40.4748 50 38.2362 52.2386 38.2362 55C38.2362 57.7614 40.4748 60 43.2362 60Z" fill="black"/>
</svg>
