<svg width="58" height="58" viewBox="0 0 58 58" fill="none" xmlns="http://www.w3.org/2000/svg">
<path d="M29 38.5C27.1211 38.5 25.2843 37.9428 23.7221 36.899C22.1598 35.8551 20.9422 34.3714 20.2231 32.6355C19.5041 30.8996 19.316 28.9895 19.6825 27.1466C20.0491 25.3038 20.9539 23.6111 22.2825 22.2825C23.6111 20.9539 25.3038 20.0491 27.1466 19.6825C28.9895 19.316 30.8996 19.5041 32.6355 20.2231C34.3714 20.9422 35.8551 22.1598 36.899 23.7221C37.9428 25.2844 38.5 27.1211 38.5 29C38.5 31.5196 37.4991 33.9359 35.7175 35.7175C33.9359 37.4991 31.5196 38.5 29 38.5ZM29 24.25C28.0605 24.25 27.1422 24.5286 26.361 25.0505C25.5799 25.5725 24.9711 26.3143 24.6116 27.1823C24.2521 28.0502 24.158 29.0053 24.3413 29.9267C24.5245 30.8481 24.9769 31.6945 25.6412 32.3588C26.3055 33.0231 27.1519 33.4755 28.0733 33.6587C28.9947 33.842 29.9498 33.7479 30.8177 33.3884C31.6857 33.0289 32.4275 32.4201 32.9495 31.639C33.4714 30.8578 33.75 29.9395 33.75 29C33.75 27.7402 33.2496 26.532 32.3588 25.6412C31.468 24.7504 30.2598 24.25 29 24.25ZM43.25 55.125C43.25 51.3457 41.7487 47.7211 39.0763 45.0487C36.4039 42.3763 32.7793 40.875 29 40.875C25.2207 40.875 21.5961 42.3763 18.9237 45.0487C16.2513 47.7211 14.75 51.3457 14.75 55.125C14.75 55.7549 15.0002 56.359 15.4456 56.8044C15.891 57.2498 16.4951 57.5 17.125 57.5C17.7549 57.5 18.359 57.2498 18.8044 56.8044C19.2498 56.359 19.5 55.7549 19.5 55.125C19.5 52.6054 20.5009 50.1891 22.2825 48.4075C24.0641 46.6259 26.4804 45.625 29 45.625C31.5196 45.625 33.9359 46.6259 35.7175 48.4075C37.4991 50.1891 38.5 52.6054 38.5 55.125C38.5 55.7549 38.7502 56.359 39.1956 56.8044C39.641 57.2498 40.2451 57.5 40.875 57.5C41.5049 57.5 42.109 57.2498 42.5544 56.8044C42.9998 56.359 43.25 55.7549 43.25 55.125ZM43.25 19.5C41.3711 19.5 39.5343 18.9428 37.9721 17.899C36.4098 16.8551 35.1922 15.3714 34.4731 13.6355C33.7541 11.8996 33.566 9.98947 33.9325 8.14665C34.2991 6.30383 35.2039 4.61109 36.5325 3.28249C37.8611 1.95389 39.5538 1.0491 41.3966 0.682544C43.2395 0.315985 45.1496 0.504116 46.8855 1.22315C48.6214 1.94218 50.1051 3.15982 51.149 4.72209C52.1928 6.28435 52.75 8.12108 52.75 10C52.75 12.5196 51.7491 14.9359 49.9675 16.7175C48.1859 18.4991 45.7696 19.5 43.25 19.5ZM43.25 5.25C42.3105 5.25 41.3922 5.52859 40.611 6.05052C39.8299 6.57246 39.2211 7.31431 38.8616 8.18226C38.5021 9.05021 38.408 10.0053 38.5913 10.9267C38.7745 11.8481 39.2269 12.6945 39.8912 13.3588C40.5555 14.0231 41.4019 14.4755 42.3233 14.6587C43.2447 14.842 44.1998 14.7479 45.0677 14.3884C45.9357 14.0289 46.6775 13.4201 47.1995 12.639C47.7214 11.8578 48 10.9395 48 10C48 8.74023 47.4996 7.53204 46.6088 6.64125C45.718 5.75045 44.5098 5.25 43.25 5.25ZM57.5 36.125C57.4962 32.3468 55.9937 28.7245 53.3221 26.0529C50.6505 23.3813 47.0282 21.8788 43.25 21.875C42.6201 21.875 42.016 22.1252 41.5706 22.5706C41.1252 23.016 40.875 23.6201 40.875 24.25C40.875 24.8799 41.1252 25.484 41.5706 25.9294C42.016 26.3748 42.6201 26.625 43.25 26.625C45.7696 26.625 48.1859 27.6259 49.9675 29.4075C51.7491 31.1891 52.75 33.6054 52.75 36.125C52.75 36.7549 53.0002 37.359 53.4456 37.8044C53.891 38.2498 54.4951 38.5 55.125 38.5C55.7549 38.5 56.359 38.2498 56.8044 37.8044C57.2498 37.359 57.5 36.7549 57.5 36.125ZM14.75 19.5C12.8711 19.5 11.0343 18.9428 9.47208 17.899C7.90982 16.8551 6.69218 15.3714 5.97314 13.6355C5.25411 11.8996 5.06598 9.98947 5.43254 8.14665C5.7991 6.30383 6.70389 4.61109 8.03249 3.28249C9.36108 1.95389 11.0538 1.0491 12.8966 0.682544C14.7395 0.315985 16.6496 0.504116 18.3855 1.22315C20.1214 1.94218 21.6051 3.15982 22.649 4.72209C23.6928 6.28435 24.25 8.12108 24.25 10C24.25 12.5196 23.2491 14.9359 21.4675 16.7175C19.6859 18.4991 17.2696 19.5 14.75 19.5ZM14.75 5.25C13.8105 5.25 12.8922 5.52859 12.111 6.05052C11.3299 6.57246 10.7211 7.31431 10.3616 8.18226C10.0021 9.05021 9.90799 10.0053 10.0913 10.9267C10.2745 11.8481 10.7269 12.6945 11.3912 13.3588C12.0555 14.0231 12.9019 14.4755 13.8233 14.6587C14.7447 14.842 15.6998 14.7479 16.5677 14.3884C17.4357 14.0289 18.1775 13.4201 18.6995 12.639C19.2214 11.8578 19.5 10.9395 19.5 10C19.5 8.74023 18.9996 7.53204 18.1088 6.64125C17.218 5.75045 16.0098 5.25 14.75 5.25ZM5.25 36.125C5.25 33.6054 6.25089 31.1891 8.03249 29.4075C9.81408 27.6259 12.2304 26.625 14.75 26.625C15.3799 26.625 15.984 26.3748 16.4294 25.9294C16.8748 25.484 17.125 24.8799 17.125 24.25C17.125 23.6201 16.8748 23.016 16.4294 22.5706C15.984 22.1252 15.3799 21.875 14.75 21.875C10.9718 21.8788 7.34947 23.3813 4.67789 26.0529C2.00632 28.7245 0.503773 32.3468 0.5 36.125C0.5 36.7549 0.750223 37.359 1.19562 37.8044C1.64102 38.2498 2.24511 38.5 2.875 38.5C3.50489 38.5 4.10898 38.2498 4.55438 37.8044C4.99978 37.359 5.25 36.7549 5.25 36.125Z" fill="black"/>
</svg>
