<svg width="100" height="70" viewBox="0 0 100 70" fill="none" xmlns="http://www.w3.org/2000/svg">
<path d="M66.4525 11.583L50.79 6.6217C50.2772 6.45943 49.7228 6.45943 49.21 6.6217L33.5475 11.583C31.0573 12.3688 28.891 13.8802 27.3566 15.9024C25.8222 17.9245 24.9976 20.3547 25 22.8474V35.0001C25 52.962 48 62.8822 48.985 63.2954C49.3046 63.4303 49.6504 63.5 50 63.5C50.3497 63.5 50.6955 63.4303 51.015 63.2954C52 62.8822 75.0001 52.962 75.0001 35.0001V22.8474C75.0025 20.3547 74.1779 17.9245 72.6434 15.9024C71.109 13.8802 68.9428 12.3688 66.4525 11.583ZM70.0001 35.0001C70.0001 47.9556 54.2025 56.4532 50 58.4861C45.7925 56.4603 30 47.9888 30 35.0001V22.8474C30.0002 21.3519 30.4957 19.8943 31.4164 18.6811C32.3372 17.468 33.6364 16.5609 35.13 16.0883L50 11.3787L64.87 16.0883C66.3637 16.5609 67.6629 17.468 68.5836 18.6811C69.5044 19.8943 69.9999 21.3519 70.0001 22.8474V35.0001Z" fill="black"/>
<path d="M58.2501 26.2128L47.78 36.1876L42.17 30.6302C41.9449 30.3963 41.6728 30.2077 41.3697 30.0753C41.0666 29.9429 40.7387 29.8694 40.4053 29.8593C40.0719 29.8492 39.7397 29.9025 39.4283 30.0162C39.1169 30.1299 38.8326 30.3017 38.5922 30.5214C38.3518 30.741 38.1601 31.0042 38.0284 31.2954C37.8967 31.5865 37.8276 31.8998 37.8253 32.2167C37.823 32.5336 37.8875 32.8477 38.015 33.1406C38.1424 33.4334 38.3303 33.6991 38.5675 33.9219L44.3325 39.6218C44.7625 40.063 45.2821 40.4167 45.8601 40.6616C46.438 40.9065 47.0623 41.0376 47.695 41.0468H47.7775C48.3977 41.0487 49.0121 40.9336 49.585 40.7082C50.1579 40.4827 50.678 40.1514 51.115 39.7334L61.7951 29.5876C62.0283 29.3665 62.2134 29.1038 62.3399 28.8148C62.4663 28.5257 62.5316 28.2157 62.5319 27.9027C62.5322 27.5896 62.4677 27.2796 62.3419 26.9902C62.2161 26.7009 62.0316 26.4379 61.7988 26.2163C61.566 25.9947 61.2896 25.8189 60.9853 25.6988C60.681 25.5786 60.3547 25.5167 60.0252 25.5163C59.6957 25.516 59.3693 25.5773 59.0647 25.6968C58.7601 25.8163 58.4833 25.9916 58.2501 26.2128Z" fill="black"/>
</svg>
